<?xml version="1.0" encoding="utf-8"?>
<!-- Generator: Adobe Illustrator 27.5.0, SVG Export Plug-In . SVG Version: 6.00 Build 0)  -->
<svg version="1.1" id="Layer_1" xmlns="http://www.w3.org/2000/svg" xmlns:xlink="http://www.w3.org/1999/xlink" x="0px" y="0px"
	 viewBox="0 0 3000 2000" style="enable-background:new 0 0 3000 2000;" xml:space="preserve">
<g>
	<g>
		<rect style="fill:#F7F7F7;" width="3000" height="2000"/>
		<rect style="fill:#FE0000;" width="889.328" height="2000"/>
		<rect x="2110.613" style="fill:#FE0000;" width="889.328" height="2000"/>
	</g>
	<path style="fill:#FB0708;" d="M1521.948,1301.31c3.601-0.6,280.688,31.012,280.688,31.012s-30.409-58.422-28.809-84.031
		c3.201-32.812,279.287-246.49,279.287-246.49s-66.021-30.011-68.421-42.015c-14.405-31.211,50.416-188.469,50.416-188.469
		s-148.847,43.216-165.652,34.813c-16.805-8.403-38.412-85.231-38.412-85.231s-127.24,148.854-139.244,154.857
		c-12.004,6.002-34.811-3.601-32.41-26.41c2.401-22.808,62.42-304.911,62.42-304.911s-90.028,52.819-108.034,49.218
		C1574.165,579.246,1500,397.98,1500,397.98s-74.165,181.266-113.777,195.672c-18.006,3.601-108.034-49.218-108.034-49.218
		s60.019,282.103,62.42,304.911c2.401,22.808-20.406,32.412-32.41,26.41c-12.004-6.002-139.244-154.857-139.244-154.857
		s-21.607,76.828-38.412,85.231c-16.805,8.403-165.652-34.813-165.652-34.813s64.82,157.258,50.416,188.469
		c-2.401,12.004-68.421,42.015-68.421,42.015s276.086,213.678,279.287,246.49c1.6,25.609-28.809,84.031-28.809,84.031
		s277.087-31.612,280.688-31.012c3.601,0.6,6.602,3.601,9.003,10.204c2.401,6.602-12.004,290.506-12.004,290.506H1500h24.949
		c0,0-14.404-283.904-12.004-290.506C1515.346,1304.911,1518.347,1301.91,1521.948,1301.31z"/>
</g>
</svg>
